<?xml version="1.0" encoding="utf-8"?>
<!-- Generator: Adobe Illustrator 23.0.3, SVG Export Plug-In . SVG Version: 6.00 Build 0)  -->
<svg version="1.1"
	 id="Layer_1" xmlns:cc="http://creativecommons.org/ns#" xmlns:dc="http://purl.org/dc/elements/1.1/" xmlns:rdf="http://www.w3.org/1999/02/22-rdf-syntax-ns#"
	 xmlns="http://www.w3.org/2000/svg" xmlns:xlink="http://www.w3.org/1999/xlink" x="0px" y="0px" viewBox="0 0 1245 435"
	 style="enable-background:new 0 0 1245 435;" xml:space="preserve">
<style type="text/css">
	.st0{stroke:#1A1A1A;stroke-width:3.65;}
	.st1{fill:#F9F9F9;}
</style>
<g transform="translate(-526 -527)">
	<rect x="526" y="522" class="st0" width="1247" height="451"/>
	<path class="st1" d="M1342,961c-1.2-2,0-3.3,13.8-14.2c18.3-14.4,34.7-29.4,35.7-32.6c0.6-1.8,0-3.7-1.7-5.6
		c-4.3-4.8-13-18.3-17.6-27.3c-4.9-9.6-12.7-32.2-11.6-33.3c0.9-0.9,0.2-2,9.4,12.4c8.2,12.7,30.5,36.7,34.1,36.7
		c4,0,26.2-41,25.2-46.4c-0.3-1.8-2.2-2.4-8.8-2.7c-5.1-0.2-8.6-1-8.9-2c-0.3-0.9-0.9-3.3-1.3-5.3l-0.8-3.7H1384
		c-14,0-25.4,0.5-25.4,1s-1.2,10.9-2.6,23c-5.3,44.2-15,68.4-37.8,93.9c-6.1,6.8-9.1,7.3-9.1,1.5c0-1.7,2-10.5,4.5-19.6
		c13.2-48,18.2-87.8,18.2-145l0-25.6l3.5-2.8c3.3-2.6,5.2-2.8,30.8-2.8h27.2V706l-156,0.7l-0.4,8.5c-0.3,6.5,0,8.3,1.3,7.9
		c1-0.3,2.3-1.9,3.1-3.5c1.5-3.3,5.7-5.1,7.5-3.3c0.8,0.8,0.2,2.2-1.5,3.7c-3.6,3.3-3.4,4.6,1.3,10.1c2.2,2.5,4,5.1,4,5.6
		s-2.3,1-5.3,1c-2.5,0-3.6,0.3-4.4-0.3c-0.7-0.5-1.4-1.8-1.7-3c-1.1-4.2-4.7-4.5-4.2-0.3c0.1,1.3,0.6,2.6-0.1,3.1
		c-0.6,0.5-2.1,0.2-3.7,0.3l-4.1,0.4l0.6-12c0.3-6.6,0.2-13.5-0.3-15.4l-0.9-3.4h-175l-0.4,120c-0.4,116-0.5,120-2.9,123
		c-3.1,3.4-5.2,3.5-7.7,0.6c-1.5-1.8-1.9-23.2-2.5-122l-0.7-120l-54.8-0.7l-5.3,10.3c-15,29.1-40.5,51.4-66.7,58.2
		c-7,1.8-7.8,1.8-8.6-0.1c-0.8-2.2,2.1-5.2,17.6-18.2c14.3-12,30.3-35.3,31.8-46.1l0.5-3.3l-75.5-0.7v31.4c0,39.6,0.3,38.8-15,41.3
		c-3.2,0.5-6.1,2.2-8.4,4.8c-3.2,3.8-3.4,4.9-3.4,19.4c0,8.4,0.6,16.5,1.4,17.9c1.2,2.2,2.9,2.6,11.7,2.6c11.8,0,26.5-3.1,30-6.2
		c1.3-1.2,3.6-6.3,5.1-11.3c1.5-5,3.1-9.1,3.5-9.1c1.5,0-0.9,17.9-3.7,28c-5.6,20.1-10.9,23.6-33.7,22.3c-22.8-1.3-33.9-6-40.4-17.1
		c-2.3-3.8-2.8-7.7-3.3-25.5c-0.6-19.2-0.9-21.2-3.6-23.8c-5-5-8.9-2.6-27.2,16.4c-25.4,26.5-46.2,41.5-68.5,49.2
		c-12.1,4.2-17,4.8-17,2.1c0-2.5,3.2-5,13.6-10.7c22.1-12.1,41.8-30.3,49.3-45.4c5.8-11.8,5.3-13.3-4.9-14.2
		c-14.1-1.2-13.7-0.1-14.1-38.5l-0.4-32.8l-14.3-0.7c-15.5-0.7-20-2.5-15.2-6.1c2.2-1.6,15.6-1.9,85.1-1.9h82.5l17.2-11.5
		c20.8-13.9,37-27.3,46-38c6.4-7.7,12-16.9,12-19.8c0-0.9-7.3-1.4-20.7-1.4c-22.1,0-26.2-0.9-28.7-6.2c-2.1-4.6-2-76.9,0.1-80.9
		c3.4-6.3,0.4-6.2,100-6.2l94.4,0l6.5,6.9v80l-3.8,3.2c-3.7,3.2-4.2,3.2-29.6,3.2c-26.9,0-30,0.6-28.1,5.7c1,2.7,3.1,3.6,45.4,19.7
		c19.9,7.5,36.9,14.3,37.8,15c2.7,2,2,7.1-2.4,17.7c-2.3,5.4-3.7,10.5-3.3,11.2c1.2,1.9,56.5,1.8,62-0.1c7.1-2.5,6.9-5-2.1-26.2
		c-0.5-1.2,0.7-1.7,3.9-1.7c4.2,0,4.7,0.4,5.8,5c1.6,6.3,3.5,6.4,5.4,0.3c1-3.1,2.4-4.8,4.3-5.1c3.5-0.5,3.6,0.3,0.3,4.9
		c-4.2,5.9-11,21.9-9.8,23.1c0.6,0.6,44.1,0.9,96.6,0.8l95.5-0.3l0.7-22.1c0.7-23.9,1.5-26.6,7.8-26.5c7.3,0,7.5,0.7,8.2,25.6
		l0.7,23.1l141,0.7l8.6-7.7l0.6-16.9c0.5-16.1,0.7-17,3.9-19.5c2.4-1.9,5.4-2.6,10.5-2.6c14.3,0,16.6,3.4,16.6,25
		c0,13.4,0.1,14,3.7,17.6l3.7,3.7l86.2,1c47.4,0.5,86.7,1.5,87.3,2c3.6,3.5-10.2,4.1-108,4.1h-100l-3.8,3.2c-3.7,3.2-3.8,3.4-4.6,23
		c-0.5,10.9-0.6,20.2-0.3,20.8c0.3,0.5,22.6,1,49.4,1c30.7,0,49.8,0.5,51.4,1.4c5.2,2.8,5.4,5.4,3.3,32.3
		c-3.6,45-5.9,61.8-10.2,74.1c-3.5,10.1-7,14.3-15.3,18.4c-7,3.4-8,3.5-23.7,3c-17.3-0.7-46.8-6.3-50.3-9.7c-3.3-3.2,2.6-5,11.5-3.5
		c27.9,4.7,40.7,2,46.4-10c4.1-8.5,8.8-43.9,10.8-80.6c1.1-20.7,1.5-20.2-15.7-19.7l-12.5,0.4l-0.4,5.3c-0.2,2.9-1,5.9-1.7,6.7
		c-0.7,0.7-11.9,1.6-24.8,2l-23.5,0.7l-4.6,11.3c-18.5,45.8-43.9,78.6-72.5,93.4c-4.6,2.4-6,2.7-6.9,1.3c-1.6-2.6-0.1-5.6,13.6-26
		c20.2-30.1,34.7-62.3,40.7-90c1.7-7.8,2.4-17.3,2.5-30.8c0.1-18.9,0-19.7-3.2-23l-3.3-3.5l-107,0.7v53.3l31,0.7
		c20.9,0.4,31.5,1.2,32.6,2.2c2.4,2.4-0.7,9.8-9.7,23.4c-10.8,16.1-21.6,27.7-23.9,25.5c-1.3-1.3-1-4.8,1.8-17.3
		c4.7-21.1,5.2-25.2,3-27c-1.1-0.9-7.5-1.3-17.6-1.1c-15.6,0.4-15.8,0.4-16.7,3.7c-1.7,6.1-1.3,58,0.4,59.7
		c1.1,1.1,8.8,1.6,25.8,1.6c26,0,27.4,0.3,27.4,6.8c0,7.8-23.4,49.4-36.6,65c-2.7,3.2-4.6,6.3-4.1,7c1.4,2.3,19.9,10.9,35.2,16.4
		c11.6,4.2,15.5,6.1,16.3,8.4c1.4,4-9.7,27.1-13,27.1c-5.5,0-33.9-17.2-48.6-29.4l-8.1-6.7l-13,9.4c-7.2,5.2-20.3,12.9-29.1,17.2
		c-18.7,9.2-20.4,9.8-21.4,8.1L1342,961z M1393.2,805l0.4-26.4l-35.5,0.7l-0.4,19.6c-0.6,29.9,1.9,33.3,23.8,32.7l11.4-0.3
		L1393.2,805z M842.2,770.7c9-5.5,10.4-17.4,3-25.7l-3.8-4.3l-24.5-0.7c-20.6-0.6-24.5-1-24.5-2.7c0-1.7,3.8-2.1,23.4-2.7
		c14-0.4,24.5-1.3,26.1-2.2c5.6-3.2,8-7.6,7.5-13.5c-0.1-1.2-3.7-1.7-12.7-1.7c-14.3,0-16.8-0.6-16.8-4c0-6.3-0.8-6.6-17.3-6.6
		c-15.2,0-15.8,0.1-19.2,3.5c-4.7,4.6-5.2,8.3-4.7,32.8l0.4,20.9l3.9,4c2.1,2.2,5.1,4.3,6.7,4.6c1.5,0.3,13.1,0.6,25.6,0.7
		c20.6,0.2,23.1-0.1,27.2-2.5L842.2,770.7z M956.2,693.8c0.5-5.1-3.5-9.8-8.5-9.8c-1.8,0-8.9,2.3-15.7,5.2c-6.8,2.8-13.4,5.5-14.7,6
		c-1.3,0.4-2.3,1.4-2.3,2.2c0,0.9,6.7,1.3,20.4,1l20.4-0.4L956.2,693.8z M1040.4,666.2c0.4-31.2,0.3-32-2.6-35
		c-2.6-2.7-4.2-3.1-13.1-3.1c-14.4,0-18.6,2.4-32.8,18.1c-11.4,12.7-25.5,25.9-27.7,25.9c-0.6,0-1.1,0.9-1.1,2c0,1.6,1.9,2,9.2,2
		c7.4,0,9.9,0.6,12.9,2.9c3.5,2.7,3.6,3.3,2.9,10.5c-0.4,4.2-0.4,8,0.1,8.5c0.5,0.5,12.3,0.7,26.4,0.5l25.5-0.4L1040.4,666.2z
		 M1114.8,697.6c0.7-1.2-57.6-50.8-59.7-50.8c-1.3,0-1.4,49.9-0.2,51.1C1056.3,699.3,1113.9,699,1114.8,697.6L1114.8,697.6z
		 M993.8,616.9c4.3-4.3,4.5-5.1,4.5-13.5c0-15.8-4.1-19.5-22.7-20.4c-22.3-1-29.5,3-30.5,17.1c-0.7,9.1,1.2,14.8,6.1,18.7
		c2.9,2.3,5.5,2.6,20.7,2.6h17.3L993.8,616.9z M1076.8,619.2c1.9-1.3,4.3-4.2,5.3-6.6c2.3-5.5,2.4-15.9,0.2-17.4
		c-0.9-0.6-5.9-1.4-11-1.8l-9.4-0.7l-0.4-4.3c-0.5-4.7-1.7-5.3-11.6-6c-3.7-0.2-5.3-1-5.3-2.4c0-1.6,2.8-2.1,15-2.7
		c14.3-0.6,15.1-0.8,19-4.5c7.5-7.2,6.9-23-1.1-28.7c-3.4-2.4-5.8-2.7-21.3-2.7c-17.4,0-17.5,0-21.9,3.9l-4.4,3.9v64.4l4.4,3.9
		c4.3,3.9,4.4,3.9,21.8,3.9c14.1,0,18.1-0.4,20.9-2.3L1076.8,619.2z M991.4,574.8c5.3-3.3,7-7.2,7-16.9c0-6.6-0.5-7.8-4.5-11.9
		l-4.5-4.5h-17.2c-18.9,0-21.4,0.8-25.2,8c-2.6,5-2.6,15,0,20c3.4,6.5,7.6,7.9,24.7,7.9C984.7,577.4,987.6,577,991.4,574.8
		L991.4,574.8z M1275.4,960.8c-1.3-0.5-1.7-12.2-1.7-51.9c0-43.5-0.3-51.2-1.9-51.2c-1.1,0-7.8,6.3-14.9,13.9
		c-16.2,17.4-21.8,20.1-34.3,16.7c-6.2-1.7-6.5-3.9-0.7-4c2.4,0,5.7-0.8,7.3-1.7c3.2-1.8,27-32.9,40.4-52.7
		c4.6-6.8,11-18.2,14.3-25.3c8.8-19.2,9.1-19.6,12-20c3.6-0.5,22.9,8.5,24.5,11.4c1.7,3.3,0.2,6.2-10.4,19.5l-9.5,11.9v65.5
		c0,49.2-0.4,65.9-1.6,67.1C1297.4,961.6,1279.1,962.2,1275.4,960.8L1275.4,960.8z M1139.4,845.8c-3.2-1.2-2.5-1.6,9.7-5.5
		c17.8-5.6,32.8-17.6,40.8-32.7c4-7.5,4.2-8.9,4.2-22c0-12.8-0.3-14.5-3.7-20.2c-7.2-12.3-18-18.3-34.6-19.5
		c-6.7-0.5-10.5-0.2-10.5,0.6c0,0.7,1,3.7,2.2,6.5c6.4,15.3-6,51.3-24.7,71.4c-13.7,14.8-25.6,19.1-35.1,12.7
		c-13-8.7-16.5-36.5-7.1-56.9c7.9-17.2,24.4-31.6,43.1-37.5c11.3-3.6,33.1-4.9,44.7-2.6c18.9,3.7,36.2,15.8,43.3,30.2
		c11.7,23.9-0.1,55-25.4,67.1c-13,6.2-39.8,10.9-46.8,8.2L1139.4,845.8z M1111.2,811.8c15.1-15,26.4-37.8,26.6-53.3
		c0.1-11.5-1.5-13-10.3-9.7c-21.9,8.3-37.2,31.3-35.4,53.4C1093.6,820.5,1099.5,823.5,1111.2,811.8L1111.2,811.8z M1237.2,815.3
		c13.4-19.9,19.4-29.9,25.5-43c10.9-23.3,10.1-22,14.5-21.8c2.2,0.1,8.1,2.2,13.3,4.7c13.7,6.5,13.5,7.9-2.9,23.7
		c-7.3,7-20.4,18.2-29.2,24.9C1237.5,819.5,1232.5,822.2,1237.2,815.3L1237.2,815.3z M651.2,805.9c-1.7-5.6-3.6-22.1-2.9-25.1
		c1-4.2,4.1-5.7,13.7-6.8c4.3-0.5,9.2-1.4,10.8-2l3-1.1v-40.1c0-41.9-0.5-46.1-6-50.7c-2-1.7-12.7-2.1-71.4-2.7
		c-49.5-0.5-69.7-1.1-71.7-2.2c-6.4-3.8,4.3-4.4,71-4.4c57.4,0,66.7-0.3,70.2-2.1c7-3.6,7.8-8,7.8-39.7c0-33.9,0.1-34.2,12.4-35.2
		c7-0.6,7.8-0.3,11.6,3.4l4.1,4.1v60.5l4.5,4.5c2.9,2.9,5.8,4.5,8.1,4.5c4.3,0,9.1,2.3,8.1,4c-0.4,0.6-3.3,1.6-6.4,2.1
		c-6.9,1.2-10.8,3.6-12.9,8c-1,2.3-1.5,14.5-1.5,37.4v34l3.9,3.9c4.4,4.4,6,4.6,15.7,2c6.7-1.8,8.4-1.6,8.4,0.7
		c0,4-71.1,45.1-78,45.1c-1.1,0-2.3-1-2.7-2.3L651.2,805.9z M1256.2,737c-3-2.2-0.3-8.4,4-9.5c4.5-1.1,7-4.2,5-6.2
		c-1.1-1.1-2.2-0.9-4,0.7c-3.1,2.8-5.6,2.9-5.6,0.2c0-2,7.4-5.9,11.2-5.9c3.8,0,6.2,4,6.2,10.5c0,3.5,0.7,7,1.6,7.9
		c0.9,0.9,1.2,2,0.7,2.5C1273.7,738.7,1258.4,738.6,1256.2,737L1256.2,737z M1267.6,731.7c0-0.4-0.1-1.6-0.6-2.3
		c-0.4-0.6-1.5-0.8-2.1-0.8c-0.4,0-1.1,0-1.7,0.6c-0.5,0.6-0.9,1.7-0.9,2.3c0,0.5,0.3,1.3,0.7,1.7c0.6,0.5,1.3,0.6,1.8,0.7
		c0.6,0.1,1.1-0.2,1.9-0.6C1267.3,733.2,1267.6,732,1267.6,731.7L1267.6,731.7z M1306.8,736.9c-3.2-2.3-1.3-6.4,4-9
		c3.2-1.6,5-3.4,5-5c0-3-3.4-3.4-4.5-0.6c-1,2.5-4.9,2.6-4.9,0.2c0-2.7,3.2-4.9,8.4-5.7c4-0.6,5-0.2,6.9,2.7c1.6,2.4,2,4.7,1.3,7.5
		c-0.6,2.5-0.3,4.8,0.7,6c3,3.7,0.8,5.3-7.3,5.3C1312.2,738.3,1307.9,737.7,1306.8,736.9L1306.8,736.9z M1317.3,731.7
		c0-0.5-0.5-1.9-0.7-2.2c-0.2-0.4-1.4-0.4-1.8-0.4c-0.5,0-0.9,0.2-1.6,0.5c-0.3,0.1-1,1.8-1,2.1c0,0.5,0.7,1.6,1,1.8
		c0.5,0.3,1.2,0.4,1.6,0.4c0.5,0,0.9-0.2,1.6-0.5C1316.8,733.2,1317.3,732.1,1317.3,731.7L1317.3,731.7z M1331.6,737.3
		c-6.3-6.4-2.7-14-1.6-18.4c-0.1-0.4-3.5-0.3-3.5-0.3c-0.2-1.4,0.1-2.7,0.1-3.2c0-0.2,0.9-0.7,1.6-0.6c0.3-0.3,0.9-0.8,1.1-1
		c0.1-0.2,0.4-0.4,0.4-0.6c1.8-0.2,2.4-0.2,4.3-0.1c0.1,0.4,0,2.5,0,2.5c1,0.4,4.6-0.2,4.6,0.2c0.1,0.7-0.3,3.2-0.3,3.2
		c-2.1-0.1-4.1-0.4-4.2,0c-1.1,5-2.1,10.6,1.4,13.5c0.8,0.7,1.4,0.7,3.7,0.9c0.5,2.7,0.4,3.4,0.4,4.1
		C1334.3,738.1,1333.4,738.6,1331.6,737.3L1331.6,737.3z M1344.6,736.8c-3.4-2.5-1.4-7.1,4-9.3c5.3-2.2,6.2-3.4,4.6-5.9
		c-1-1.6-1.6-1.5-3.7,0.4c-3.2,2.8-5.7,2.9-5.7,0.2c0-2,7.4-5.9,11.2-5.9c3.8,0,6.2,4,6.2,10.5c0,3.5,0.7,7,1.6,7.9
		c0.9,0.9,1.2,2,0.7,2.5C1361.8,738.8,1347,738.6,1344.6,736.8L1344.6,736.8z M1356.2,731.5c0-0.5-0.3-1.5-0.5-1.8
		c-0.1-0.2-0.8-0.5-2-0.6c-0.8,0-1.7,0.5-1.8,0.6c-0.4,0.4-0.7,0.8-0.7,1.9s0.2,1.6,0.7,2.1c0.2,0.2,1,0.3,1.7,0.3
		c0.9,0,1.5-0.1,2.1-0.2C1356.2,733.6,1356.2,731.8,1356.2,731.5L1356.2,731.5z M1279.2,736.6c-0.4-0.6-0.2-1.9,0.3-2.8
		c0.6-0.9,0.8-4.6,0.4-8.1c-0.7-7.6,0.1-8.4,9.9-8.9c8.7-0.4,11.1,1.5,11.1,9.3c0,3.1,0.4,6.9,0.8,8.6c0.7,2.7,0.3,3-4,3h-4.8
		l0.8-6.6c0.9-7.7-1.2-11.9-4.5-9.1c-1.3,1.1-1.8,3.7-1.6,8.3c0.4,6.7,0.3,6.8-3.8,7.2C1281.7,737.6,1279.5,737.3,1279.2,736.6
		L1279.2,736.6z M1164.2,690c0-0.6-0.1-8.3-0.1-17.1c0-13.6,0.4-16.2,2.3-17.6c4.1-3,6.1,0.4,5.8,9.5c-0.1,4.4-0.2,8.8-0.1,9.8
		c0.3,3,4.1,1.7,4.9-1.7c0.7-2.7,1.7-3.3,4.9-3.3h4.1l-2.9,3.1c-3.9,4.2-3.7,6.6,1.2,12.2c4.5,5.2,3.6,6.7-3.6,5.8
		c-2.7-0.3-3.9-1.3-4.5-3.7c-1.1-4.6-3.8-5-4.3-0.5c-0.3,3-1.2,3.8-4.1,4.2C1165.9,690.9,1164.3,690.6,1164.2,690L1164.2,690z
		 M1215.5,687.5c-2.9-2.9-3.3-4.3-2.7-8.3c1-6.4,5-9.6,12.2-9.6c6.7,0,9.8,2.8,11,9.7c1.1,6.7-3.8,11.6-11.6,11.6
		C1220.4,691,1218.1,690.1,1215.5,687.5L1215.5,687.5z M1227,685.7c1.9-3.6,1.7-8.4-0.5-11.4c-1.6-2.2-2.2-2.3-4-0.8
		c-3.5,2.9-2,14.8,1.9,14.8C1225.1,688.3,1226.2,687.2,1227,685.7L1227,685.7z M1238.9,690c-0.3-0.6-0.2-8.6,0.2-17.7l0.7-16.7h3.3
		c3.3,0,3.3,0.2,3.3,10c0,8.4,0.4,10,2.3,10.4c1.5,0.3,2.6-0.7,3.2-3c0.7-2.7,1.7-3.4,4.7-3.4c4.5,0,4.9,1.3,1.2,3.7
		c-3.8,2.3-3.3,5.6,1.4,11.3c4.5,5.5,3.6,6.9-3.6,6.1c-2.7-0.3-3.9-1.3-4.5-3.7c-1.1-4.6-3.8-5-4.3-0.5c-0.3,2.9-1.2,3.8-4,4.2
		C1241,690.9,1239.2,690.6,1238.9,690L1238.9,690z M1265.7,689.5c-2.7-1.6,0.2-8.5,3.8-9c3.8-0.5,6.3-3.6,5.2-6.4
		c-0.8-2-1.8-2-4.6,0.5c-3,2.8-4.2,2.8-4.2-0.4c0-2.1,5.9-4.7,10.8-4.7c3.1,0,4.3,0.8,5.4,3.6c0.6,6,0.6,11.8,1.3,16.4
		C1280.3,690.1,1267.5,690.6,1265.7,689.5L1265.7,689.5z M1277.2,684.9c0-0.4-0.1-1.5-0.5-2.2c-0.4-0.6-1.6-0.8-1.9-0.8
		c-0.5,0-1.6,0.1-2.1,0.6c-0.7,0.7-0.8,1.9-0.8,2.4c0,0.3,0.2,1.1,0.7,1.5c0.7,0.5,1.8,0.5,2.2,0.5c0.5,0,1.6-0.1,2.1-0.6
		C1277.1,685.9,1277.2,685.2,1277.2,684.9L1277.2,684.9z M1289.7,690c-0.3-0.6-0.3-5.1,0-10.1c0.4-7.4,1-9.3,3.2-10.5
		c3.8-2.1,5,0.4,5,10.5c0,4.6,0.2,8.8,0.4,9.3C1298.8,690.6,1290.4,691.3,1289.7,690L1289.7,690z M1317,680.3l1.5-10.4l6.4-1.7
		c9.9-2.6,9.1,2.5,10,3.6c0.8,0.9,0.4,5,0.7,9.7l0.5,8.7h-4c-1.9,0-2.6-0.1-3.5-0.1c0,0-0.3-3.2-0.1-6.6c0.2-4.3-0.1-8.7-0.1-8.7
		c-2.5-0.1-4.8,0.1-4.8,0.1c-0.4,5.4-0.7,9.2-0.9,15.2c-2.7,0.3-3.1,0.1-5.8,0.4L1317,680.3z M1342.4,688.2
		c-4.1-3.8-4-11.8,0.2-15.7c4.3-4.1,12.8-4,16.7,0.2c4.2,4.5,3.9,11.9-0.6,15.5C1354,691.8,1346.3,691.9,1342.4,688.2L1342.4,688.2z
		 M1355,680.1c0-6.5-4.2-9.6-7-5.9c-2.4,3.3-2.4,7.4,0.3,11.1C1351.2,689.5,1355,686.8,1355,680.1L1355,680.1z M737,676.4
		c-4.7-3,0.6-4.1,19.3-4.1c15.2,0,19.5-0.4,20.1-1.8c0.4-1-0.5-5.6-2.1-10.3s-3.5-12.2-4.3-16.8c-2.1-11.2-0.8-12.7,10.1-12.2
		l8.1,0.4l0.4,19.3c0.3,13.4,0.9,19.6,2,20.3c2.4,1.5,13.6,1.3,20.2-0.4c6.2-1.6,11.7-5.9,14.7-11.6c2.4-4.6,8.8-28,8.8-32l0-3
		h-43.2c-34.1,0-43.7-0.4-45.7-1.8c-4.3-3.1,0-4.1,21.8-4.8l20.5-0.7l3.9-4.3c2.1-2.4,3.9-5.9,3.9-7.7s1.5-4.8,3.3-6.7
		c2.8-2.8,4.5-3.3,12.4-3.3c10.3,0,14.3,1.9,15.6,7.6c3.2,13.8,5.7,15,29.8,15c20.9,0,28.5,0.9,28.5,3.3c0,2.8-3.4,3.3-20.5,3.3
		c-9,0-17.1,0.6-18.1,1.2c-3.2,2-0.5,5.3,7.2,8.7c10.1,4.5,10,7.2-1,17.6c-4.6,4.4-11.5,10.3-15.4,13c-3.9,2.8-6.7,5.4-6.2,5.9
		c0.5,0.5,15.3,1.1,33,1.5c22.1,0.5,32.4,1.1,32.7,2.2c0.3,0.8-0.9,1.9-2.6,2.3c-4.8,1.3-155,1-157-0.3L737,676.4z M1291,663.1
		c-1.3-2.1,0.8-5.5,3.3-5.5s4.6,3.4,3.3,5.5c-0.4,0.7-1.9,1.2-3.3,1.2C1292.9,664.3,1291.4,663.8,1291,663.1z"/>
</g>
</svg>
